                                                                        S      1
,,21HTurntable Platform v3,21HTurntable Platform v3,7Hunknown,7Hunknown,G      1
32,38,7,99,15,,1.,2,2HMM,1,0.08,15H20221101.023315,0.01,10000.,7HunknownG      2
,7Hunknown,11,0,15H20220114.210816;                                     G      3
     186       1                                                00000000D      1
     186            -103       1       0                               0D      2
     514       2                                                00010000D      3
     514                       1       1                               0D      4
     510       3                                                00010000D      5
     510            -103       1       1                               0D      6
     510       4                                                00010000D      7
     510            -103       1       1                               0D      8
     510       5                                                00010000D      9
     510            -103       1       1                               0D     10
     510       6                                                00010000D     11
     510            -103       1       1                               0D     12
     510       7                                                00010000D     13
     510            -103       1       1                               0D     14
     510       8                                                00010000D     15
     510            -103       1       1                               0D     16
     510       9                                                00010000D     17
     510            -103       1       1                               0D     18
     510      10                                                00010000D     19
     510            -103       1       1                               0D     20
     510      11                                                00010000D     21
     510            -103       1       1                               0D     22
     508      12                                                00010000D     23
     508                       1       1                               0D     24
     508      13                                                00010000D     25
     508                       1       1                               0D     26
     508      14                                                00010000D     27
     508                       1       1                               0D     28
     508      15                                                00010000D     29
     508                       1       1                               0D     30
     508      16                                                00010000D     31
     508                       2       1                               0D     32
     508      18                                                00010000D     33
     508                       1       1                               0D     34
     508      19                                                00010000D     35
     508                       3       1                               0D     36
     508      22                                                00010000D     37
     508                       1       1                               0D     38
     508      23                                                00010000D     39
     508                       1       1                               0D     40
     508      24                                                00010000D     41
     508                       1       1                               0D     42
     126      25                                                00010000D     43
     126       0              10       0                               0D     44
     126      35                                                00010000D     45
     126       0              11       0                               0D     46
     126      46                                                00010000D     47
     126       0               4       0                               0D     48
     126      50                                                00010000D     49
     126       0               4       0                               0D     50
     126      54                                                00010000D     51
     126       0               3       0                               0D     52
     126      57                                                00010000D     53
     126       0               4       0                               0D     54
     126      61                                                00010000D     55
     126       0               3       0                               0D     56
     126      64                                                00010000D     57
     126       0               4       0                               0D     58
     126      68                                                00010000D     59
     126       0               3       0                               0D     60
     126      71                                                00010000D     61
     126       0               4       0                               0D     62
     126      75                                                00010000D     63
     126       0               3       0                               0D     64
     126      78                                                00010000D     65
     126       0               6       0                               0D     66
     126      84                                                00010000D     67
     126       0               6       0                               0D     68
     126      90                                                00010000D     69
     126       0               6       0                               0D     70
     126      96                                                00010000D     71
     126       0               8       0                               0D     72
     126     104                                                00010000D     73
     126       0              13       0                               0D     74
     126     117                                                00010000D     75
     126       0               4       0                               0D     76
     126     121                                                00010000D     77
     126       0               8       0                               0D     78
     128     129                                                00010000D     79
     128       0    -103       3       0                               0D     80
     128     132                                                00010000D     81
     128       0    -103      18       0                               0D     82
     128     150                                                00010000D     83
     128       0    -103       6       0                               0D     84
     128     156                                                00010000D     85
     128       0    -103       6       0                               0D     86
     128     162                                                00010000D     87
     128       0    -103       6       0                               0D     88
     128     168                                                00010000D     89
     128       0    -103       7       0                               0D     90
     128     175                                                00010000D     91
     128       0    -103      22       0                               0D     92
     128     197                                                00010000D     93
     128       0    -103       7       0                               0D     94
     128     204                                                00010000D     95
     128       0    -103       4       0                               0D     96
     502     208                                                00010000D     97
     502                       9       1                               0D     98
     504     217                                                00010001D     99
     504                       4       1                               0D    100
     406     221                                                00000000D    101
     406                       1      15                               0D    102
     314     222                                                00000200D    103
     314                       2       0                               0D    104
186,3,1,0,0,1,101;                                                     1P      1
514,9,5,1,7,1,9,1,11,1,13,1,15,1,17,1,19,1,21,1;                       3P      2
510,79,1,1,23;                                                         5P      3
510,81,1,1,25;                                                         7P      4
510,83,1,1,27;                                                         9P      5
510,85,1,1,29;                                                        11P      6
510,87,1,1,31;                                                        13P      7
510,89,1,1,33;                                                        15P      8
510,91,1,1,35;                                                        17P      9
510,93,1,1,37;                                                        19P     10
510,95,2,1,39,41;                                                     21P     11
508,1,0,99,1,1,0;                                                     23P     12
508,4,0,99,2,0,0,0,99,3,1,0,0,99,1,0,0,0,99,3,0,0;                    25P     13
508,4,0,99,4,1,0,0,99,5,1,0,0,99,6,1,0,0,99,7,0,0;                    27P     14
508,4,0,99,8,1,0,0,99,9,1,0,0,99,10,1,0,0,99,11,0,0;                  29P     15
508,5,0,99,6,0,0,0,99,12,0,0,0,99,13,0,0,0,99,10,0,0,0,99,14,0,       31P     16
0;                                                                    31P     17
508,2,0,99,8,0,0,0,99,15,0,0;                                         33P     18
508,12,0,99,16,0,0,0,99,17,1,0,0,99,12,1,0,0,99,5,0,0,0,99,18,1,      35P     19
0,0,99,7,1,0,0,99,14,1,0,0,99,9,0,0,0,99,15,1,0,0,99,11,1,0,0,        35P     20
99,13,1,0,0,99,17,0,0;                                                35P     21
508,2,0,99,18,0,0,0,99,4,0,0;                                         37P     22
508,1,0,99,2,1,0;                                                     39P     23
508,1,0,99,16,1,0;                                                    41P     24
126,8,2,0,1,0,0,-3.14159265358979,-3.14159265358979,                  43P     25
-3.14159265358979,-1.5707963267949,-1.5707963267949,0.,0.,            43P     26
1.5707963267949,1.5707963267949,3.14159265358979,                     43P     27
3.14159265358979,3.14159265358979,1.,0.707106781186548,1.,            43P     28
0.707106781186548,1.,0.707106781186548,1.,0.707106781186548,1.,       43P     29
-25.,6.54181216513922D-15,43.25,-25.,-25.,43.25,                      43P     30
1.53080849893419D-15,-25.,43.25,25.,-25.,43.25,25.,                   43P     31
9.6034291630076D-15,43.25,25.,25.,43.25,1.53080849893419D-15,         43P     32
25.,43.25,-25.,25.,43.25,-25.,1.2665046160876D-14,43.25,              43P     33
-3.14159265358979,3.14159265358979,0.,0.,0.;                          43P     34
126,8,2,0,1,0,0,-3.14159265358979,-3.14159265358979,                  45P     35
-3.14159265358979,-1.5707963267949,-1.5707963267949,0.,0.,            45P     36
1.5707963267949,1.5707963267949,3.14159265358979,                     45P     37
3.14159265358979,3.14159265358979,1.,0.707106781186548,1.,            45P     38
0.707106781186548,1.,0.707106781186548,1.,0.707106781186548,1.,       45P     39
-25.,7.56912284841676D-15,20.3000016689,-25.,25.,20.3000016689,       45P     40
1.53080849893419D-15,25.,20.3000016689,25.,25.,20.3000016689,         45P     41
25.,4.50750585054838D-15,20.3000016689,25.,-25.,20.3000016689,        45P     42
1.53080849893419D-15,-25.,20.3000016689,-25.,-25.,20.3000016689,      45P     43
-25.,1.44588885267999D-15,20.3000016689,-3.14159265358979,            45P     44
3.14159265358979,0.,0.,0.;                                            45P     45
126,1,1,0,0,1,0,-1.387999933244,-1.387999933244,                      47P     46
-0.469999999999999,-0.469999999999999,1.,1.,-25.,                     47P     47
4.50750585054838D-15,20.3000016689,-25.,9.6034291630076D-15,          47P     48
43.25,-1.387999933244,-0.469999999999999,0.,0.,0.;                    47P     49
126,1,1,0,0,1,0,-0.286819828525786,-0.286819828525786,                49P     50
0.100607584030425,0.100607584030425,1.,1.,1.93713706278105,           49P     51
-1.49999999999999,22.3,-1.93713706278105,-1.49999999999999,22.3,      49P     52
-0.286819828525786,0.100607584030425,0.,0.,0.;                        49P     53
126,1,1,0,0,1,0,0.2,0.2,0.815,0.815,1.,1.,-1.93713706278105,          51P     54
-1.49999999999999,22.3,-1.93713706278105,-1.49999999999999,           51P     55
28.45,0.2,0.815,0.,0.,0.;                                             51P     56
126,1,1,0,0,1,0,-0.100607584030425,-0.100607584030425,                53P     57
0.286819828525786,0.286819828525786,1.,1.,-1.93713706278105,          53P     58
-1.49999999999999,28.45,1.93713706278105,-1.49999999999999,           53P     59
28.45,-0.100607584030425,0.286819828525786,0.,0.,0.;                  53P     60
126,1,1,0,0,1,0,0.2,0.2,0.815,0.815,1.,1.,1.93713706278105,           55P     61
-1.49999999999999,22.3,1.93713706278105,-1.49999999999999,28.45,      55P     62
0.2,0.815,0.,0.,0.;                                                   55P     63
126,1,1,0,0,1,0,-0.286819828525786,-0.286819828525786,                57P     64
0.100607584030425,0.100607584030425,1.,1.,-1.93713706278105,          57P     65
1.50000000000001,22.3,1.93713706278105,1.50000000000001,22.3,         57P     66
-0.286819828525786,0.100607584030425,0.,0.,0.;                        57P     67
126,1,1,0,0,1,0,0.2,0.2,0.815,0.815,1.,1.,1.93713706278105,           59P     68
1.50000000000001,22.3,1.93713706278105,1.50000000000001,28.45,        59P     69
0.2,0.815,0.,0.,0.;                                                   59P     70
126,1,1,0,0,1,0,-0.100607584030425,-0.100607584030425,                61P     71
0.286819828525786,0.286819828525786,1.,1.,1.93713706278105,           61P     72
1.50000000000001,28.45,-1.93713706278105,1.50000000000001,28.45,      61P     73
-0.100607584030425,0.286819828525786,0.,0.,0.;                        61P     74
126,1,1,0,0,1,0,0.2,0.2,0.815,0.815,1.,1.,-1.93713706278105,          63P     75
1.50000000000001,22.3,-1.93713706278105,1.50000000000001,28.45,       63P     76
0.2,0.815,0.,0.,0.;                                                   63P     77
126,2,2,0,0,0,0,3.14159265358979,3.14159265358979,                    65P     78
3.14159265358979,3.80048937559971,3.80048937559971,                   65P     79
3.80048937559971,1.,0.946220954346876,1.,-2.45,                       65P     80
9.42884728577145D-15,28.45,-2.45,-0.837676130790938,28.45,            65P     81
-1.93713706278105,-1.49999999999999,28.45,3.14159265358979,           65P     82
3.80048937559971,0.,0.,0.;                                            65P     83
126,2,2,0,0,0,0,2.48269593157988,2.48269593157988,                    67P     84
2.48269593157988,3.14159265358979,3.14159265358979,                   67P     85
3.14159265358979,1.,0.946220954346873,1.,-1.93713706278105,           67P     86
1.50000000000001,28.45,-2.45,0.837676130790957,28.45,-2.45,           67P     87
9.42884728577145D-15,28.45,2.48269593157988,3.14159265358979,0.,      67P     88
0.,0.;                                                                67P     89
126,2,2,0,0,0,0,-0.658896722009918,-0.658896722009918,                69P     90
-0.658896722009918,0.658896722009918,0.658896722009918,               69P     91
0.658896722009918,1.,0.790668188890226,1.,1.93713706278105,           69P     92
-1.49999999999999,28.45,3.0986449618503,9.15933995315754D-15,         69P     93
28.45,1.93713706278105,1.50000000000001,28.45,                        69P     94
-0.658896722009918,0.658896722009918,0.,0.,0.;                        69P     95
126,4,2,0,0,0,0,0.658896722009918,0.658896722009918,                  71P     96
0.658896722009918,1.5707963267949,1.5707963267949,                    71P     97
2.48269593157988,2.48269593157988,2.48269593157988,1.,                71P     98
0.89784322071261,1.,0.897843220712609,1.,1.93713706278105,            71P     99
1.50000000000001,22.3,1.20151539337053,2.45000000000001,22.3,         71P    100
1.50019232895551D-16,2.45000000000001,22.3,-1.20151539337053,         71P    101
2.45000000000001,22.3,-1.93713706278105,1.50000000000001,22.3,        71P    102
0.658896722009918,2.48269593157988,0.,0.,0.;                          71P    103
126,8,2,0,1,0,0,-3.14159265358979,-3.14159265358979,                  73P    104
-3.14159265358979,-1.5707963267949,-1.5707963267949,0.,0.,            73P    105
1.5707963267949,1.5707963267949,3.14159265358979,                     73P    106
3.14159265358979,3.14159265358979,1.,0.707106781186547,1.,            73P    107
0.707106781186548,1.,0.707106781186548,1.,0.707106781186547,1.,       73P    108
-2.45,7.47152298451267D-15,20.3000016689,-2.45,                       73P    109
-2.44999999999999,20.3000016689,1.5001923289555D-16,                  73P    110
-2.44999999999999,20.3000016689,2.45,-2.44999999999999,               73P    111
20.3000016689,2.45,7.77156145030377D-15,20.3000016689,2.45,           73P    112
2.45000000000001,20.3000016689,1.50019232895551D-16,                  73P    113
2.45000000000001,20.3000016689,-2.45,2.45000000000001,                73P    114
20.3000016689,-2.45,8.07159991609487D-15,20.3000016689,               73P    115
-3.14159265358979,3.14159265358979,0.,0.,0.;                          73P    116
126,1,1,0,0,1,0,7.25608682133356D-7,7.25608682133356D-7,              75P    117
3.54347826086957,3.54347826086957,1.,1.,-2.45,                        75P    118
7.77156145030377D-15,20.3000016689,-2.45,9.12880881998035D-15,        75P    119
28.45,7.25608682133356D-7,3.54347826086957,0.,0.,0.;                  75P    120
126,4,2,0,0,0,0,-2.48269593157988,-2.48269593157988,                  77P    121
-2.48269593157988,-1.5707963267949,-1.5707963267949,                  77P    122
-0.658896722009918,-0.658896722009918,-0.658896722009918,1.,          77P    123
0.897843220712609,1.,0.89784322071261,1.,-1.93713706278105,           77P    124
-1.49999999999999,22.3,-1.20151539337053,-2.44999999999999,22.3,      77P    125
1.5001923289555D-16,-2.44999999999999,22.3,1.20151539337053,          77P    126
-2.44999999999999,22.3,1.93713706278105,-1.49999999999999,22.3,       77P    127
-2.48269593157988,-0.658896722009918,0.,0.,0.;                        77P    128
128,1,1,1,1,0,0,1,0,0,-2.501,-2.501,2.501,2.501,-2.501,-2.501,        79P    129
2.501,2.501,1.,1.,1.,1.,-25.01,-25.01,43.25,25.01,-25.01,43.25,       79P    130
-25.01,25.01,43.25,25.01,25.01,43.25,-2.501,2.501,-2.501,2.501;       79P    131
128,1,8,1,2,0,1,0,0,1,0.469999999999999,0.469999999999999,            81P    132
1.387999933244,1.387999933244,-3.14159265358979,                      81P    133
-3.14159265358979,-3.14159265358979,-1.5707963267949,                 81P    134
-1.5707963267949,0.,0.,1.5707963267949,1.5707963267949,               81P    135
3.14159265358979,3.14159265358979,3.14159265358979,1.,1.,             81P    136
0.707106781186548,0.707106781186548,1.,1.,0.707106781186548,          81P    137
0.707106781186548,1.,1.,0.707106781186548,0.707106781186548,1.,       81P    138
1.,0.707106781186548,0.707106781186548,1.,1.,-25.,                    81P    139
4.50750585054838D-15,20.3000016689,-25.,9.6034291630076D-15,          81P    140
43.25,-25.,25.,20.3000016689,-25.,25.,43.25,0.,25.,                   81P    141
20.3000016689,-1.97215226305253D-30,25.,43.25,25.,25.,                81P    142
20.3000016689,25.,25.,43.25,25.,4.50750585054838D-15,                 81P    143
20.3000016689,25.,9.60342916300761D-15,43.25,25.,-25.,                81P    144
20.3000016689,25.,-25.,43.25,0.,-25.,20.3000016689,                   81P    145
1.97215226305253D-30,-25.,43.25,-25.,-25.,20.3000016689,-25.,         81P    146
-25.,43.25,-25.,4.50750585054838D-15,20.3000016689,-25.,              81P    147
9.6034291630076D-15,43.25,0.469999999999999,1.387999933244,           81P    148
-3.14159265358979,3.14159265358979;                                   81P    149
128,1,1,1,1,0,0,1,0,0,-0.00850146178274483,-0.00850146178274483,      83P    150
0.380925950773466,0.380925950773466,0.199,0.199,0.816,0.816,1.,       83P    151
1.,1.,1.,1.94713706278105,-1.49999999999999,22.29,                    83P    152
-1.94713706278105,-1.49999999999999,22.29,1.94713706278105,           83P    153
-1.49999999999999,28.46,-1.94713706278105,-1.49999999999999,          83P    154
28.46,-0.00850146178274483,0.380925950773466,0.199,0.816;             83P    155
128,1,1,1,1,0,0,1,0,0,-0.00850146178274475,-0.00850146178274475,      85P    156
0.380925950773466,0.380925950773466,0.199,0.199,0.816,0.816,1.,       85P    157
1.,1.,1.,-1.94713706278105,1.50000000000001,22.29,                    85P    158
1.94713706278105,1.50000000000001,22.29,-1.94713706278105,            85P    159
1.50000000000001,28.46,1.94713706278105,1.50000000000001,28.46,       85P    160
-0.00850146178274475,0.380925950773466,0.199,0.816;                   85P    161
128,1,1,1,1,0,0,1,0,0,-0.31086449618503,-0.31086449618503,            87P    162
0.31086449618503,0.31086449618503,-0.151,-0.151,0.151,0.151,1.,       87P    163
1.,1.,1.,-3.1086449618503,1.51000000000001,28.45,                     87P    164
3.1086449618503,1.51000000000001,28.45,-3.1086449618503,              87P    165
-1.50999999999999,28.45,3.1086449618503,-1.50999999999999,28.45,      87P    166
-0.31086449618503,0.31086449618503,-0.151,0.151;                      87P    167
128,1,1,1,1,0,0,1,0,0,-0.194713706278105,-0.194713706278105,          89P    168
0.194713706278105,0.194713706278105,-0.0635,-0.0635,                  89P    169
0.0335000000000002,0.0335000000000002,1.,1.,1.,1.,                    89P    170
-1.94713706278105,2.46000000000001,22.3,1.94713706278105,             89P    171
2.46000000000001,22.3,-1.94713706278105,1.49000000000001,22.3,        89P    172
1.94713706278105,1.49000000000001,22.3,-0.194713706278105,            89P    173
0.194713706278105,-0.0635,0.0335000000000002;                         89P    174
128,1,8,1,2,0,1,0,0,1,7.25608682133356D-7,7.25608682133356D-7,        91P    175
3.54347826086957,3.54347826086957,-3.14159265358979,                  91P    176
-3.14159265358979,-3.14159265358979,-1.5707963267949,                 91P    177
-1.5707963267949,0.,0.,1.5707963267949,1.5707963267949,               91P    178
3.14159265358979,3.14159265358979,3.14159265358979,1.,1.,             91P    179
0.707106781186548,0.707106781186548,1.,1.,0.707106781186548,          91P    180
0.707106781186548,1.,1.,0.707106781186548,0.707106781186548,1.,       91P    181
1.,0.707106781186548,0.707106781186548,1.,1.,-2.45,                   91P    182
7.77156145030377D-15,20.3000016689,-2.45,9.12880881998035D-15,        91P    183
28.45,-2.45,-2.44999999999999,20.3000016689,-2.45,                    91P    184
-2.44999999999999,28.45,4.52794566833072D-44,-2.44999999999999,       91P    185
20.3000016689,4.55471265304702D-44,-2.44999999999999,28.45,2.45,      91P    186
-2.44999999999999,20.3000016689,2.45,-2.44999999999999,28.45,         91P    187
2.45,7.77156145030377D-15,20.3000016689,2.45,                         91P    188
9.12880881998035D-15,28.45,2.45,2.45000000000001,20.3000016689,       91P    189
2.45,2.45000000000001,28.45,4.52794566833072D-44,                     91P    190
2.45000000000001,20.3000016689,4.55471265304702D-44,                  91P    191
2.45000000000001,28.45,-2.45,2.45000000000001,20.3000016689,          91P    192
-2.45,2.45000000000001,28.45,-2.45,7.77156145030377D-15,              91P    193
20.3000016689,-2.45,9.12880881998035D-15,28.45,                       91P    194
7.25608682133356D-7,3.54347826086957,-3.14159265358979,               91P    195
3.14159265358979;                                                     91P    196
128,1,1,1,1,0,0,1,0,0,-0.194713706278105,-0.194713706278105,          93P    197
0.194713706278105,0.194713706278105,-0.0335000000000002,              93P    198
-0.0335000000000002,0.0635,0.0635,1.,1.,1.,1.,-1.94713706278105,      93P    199
-1.48999999999999,22.3,1.94713706278105,-1.48999999999999,22.3,       93P    200
-1.94713706278105,-2.45999999999999,22.3,1.94713706278105,            93P    201
-2.45999999999999,22.3,-0.194713706278105,0.194713706278105,          93P    202
-0.0335000000000002,0.0635;                                           93P    203
128,1,1,1,1,0,0,1,0,0,-2.501,-2.501,2.501,2.501,-2.501,-2.501,        95P    204
2.501,2.501,1.,1.,1.,1.,-25.01,25.01,20.3000016689,25.01,25.01,       95P    205
20.3000016689,-25.01,-25.01,20.3000016689,25.01,-25.01,               95P    206
20.3000016689,-2.501,2.501,-2.501,2.501;                              95P    207
502,12,-25.,6.54181216513922D-15,43.25,-25.,                          97P    208
7.56912284841676D-15,20.3000016689,1.93713706278105,                  97P    209
-1.49999999999999,22.3,-1.93713706278105,-1.49999999999999,22.3,      97P    210
-1.93713706278105,-1.49999999999999,28.45,1.93713706278105,           97P    211
-1.49999999999999,28.45,-1.93713706278105,1.50000000000001,22.3,      97P    212
1.93713706278105,1.50000000000001,22.3,1.93713706278105,              97P    213
1.50000000000001,28.45,-1.93713706278105,1.50000000000001,28.45,      97P    214
-2.45,9.12880881998035D-15,28.45,-2.45,7.47152298451267D-15,          97P    215
20.3000016689;                                                        97P    216
504,18,43,97,1,97,1,45,97,2,97,2,47,97,2,97,1,49,97,3,97,4,51,        99P    217
97,4,97,5,53,97,5,97,6,55,97,3,97,6,57,97,7,97,8,59,97,8,97,9,        99P    218
61,97,9,97,10,63,97,7,97,10,65,97,11,97,5,67,97,10,97,11,69,97,       99P    219
6,97,9,71,97,8,97,7,73,97,12,97,12,75,97,12,97,11,77,97,4,97,3;       99P    220
406,1,18HTurntable Platform;                                         101P    221
314,62.7450980392157,62.7450980392157,62.7450980392157,13HSteel      103P    222
- Satin;                                                             103P    223
S      1G      3D    104P    223                                        T      1
